HIERARCHY
ROOT mixamorig:Hips
{
	OFFSET 0.000000 201.639420 0.000000
	CHANNELS 6 Xposition Yposition Zposition Xrotation Yrotation Zrotation
	JOINT mixamorig:Spine
	{
		OFFSET 0.006200 19.524994 -2.481800
		CHANNELS 3 Xrotation Yrotation Zrotation
		JOINT mixamorig:Spine1
		{
			OFFSET -0.000900 22.835007 -2.825400
			CHANNELS 3 Xrotation Yrotation Zrotation
			JOINT mixamorig:Spine2
			{
				OFFSET -0.020600 26.552490 -3.193300
				CHANNELS 3 Xrotation Yrotation Zrotation
				JOINT mixamorig:Neck
				{
					OFFSET -0.060000 30.701813 1.352200
					CHANNELS 3 Xrotation Yrotation Zrotation
					JOINT mixamorig:Head
					{
						OFFSET -0.087200 22.547607 3.670900
						CHANNELS 3 Xrotation Yrotation Zrotation
						JOINT mixamorig:HeadTop_End
						{
							OFFSET -0.830600 40.355194 7.893500
							CHANNELS 3 Xrotation Yrotation Zrotation
							End Site
							{
								OFFSET 0.000000 30.592346 0.000000
							}
						}
						JOINT mixamorig:RightEye
						{
							OFFSET -6.302100 18.118591 16.197100
							CHANNELS 3 Xrotation Yrotation Zrotation
							End Site
							{
								OFFSET 0.000000 30.592346 0.000000
							}
						}
						JOINT mixamorig:LeftEye
						{
							OFFSET 6.741500 18.382690 16.401899
							CHANNELS 3 Xrotation Yrotation Zrotation
							End Site
							{
								OFFSET 0.000000 30.592346 0.000000
							}
						}
					}
				}
				JOINT mixamorig:LeftShoulder
				{
					OFFSET 11.924900 18.230499 1.425400
					CHANNELS 3 Xrotation Yrotation Zrotation
					JOINT mixamorig:LeftArm
					{
						OFFSET 25.435989 -0.697632 -5.229300
						CHANNELS 3 Xrotation Yrotation Zrotation
						JOINT mixamorig:LeftForeArm
						{
							OFFSET 54.684776 0.000000 0.000000
							CHANNELS 3 Xrotation Yrotation Zrotation
							JOINT mixamorig:LeftHand
							{
								OFFSET 55.098175 0.000000 0.000000
								CHANNELS 3 Xrotation Yrotation Zrotation
								JOINT mixamorig:LeftHandMiddle1
								{
									OFFSET 23.369751 0.000000 0.000000
									CHANNELS 3 Xrotation Yrotation Zrotation
									JOINT mixamorig:LeftHandMiddle2
									{
										OFFSET 6.378677 0.000000 0.000000
										CHANNELS 3 Xrotation Yrotation Zrotation
										JOINT mixamorig:LeftHandMiddle3
										{
											OFFSET 6.148331 0.000000 0.000000
											CHANNELS 3 Xrotation Yrotation Zrotation
											JOINT mixamorig:LeftHandMiddle4
											{
												OFFSET 6.582504 0.000000 0.000000
												CHANNELS 3 Xrotation Yrotation Zrotation
												End Site
												{
													OFFSET -1.168900 6.395691 1.028606
												}
											}
										}
									}
								}
								JOINT mixamorig:LeftHandThumb1
								{
									OFFSET 7.235672 -3.848206 5.434273
									CHANNELS 3 Xrotation Yrotation Zrotation
									JOINT mixamorig:LeftHandThumb2
									{
										OFFSET 6.568451 -3.792297 3.792300
										CHANNELS 3 Xrotation Yrotation Zrotation
										JOINT mixamorig:LeftHandThumb3
										{
											OFFSET 6.063080 -3.500519 3.500518
											CHANNELS 3 Xrotation Yrotation Zrotation
											JOINT mixamorig:LeftHandThumb4
											{
												OFFSET 4.793182 -2.767334 2.767349
												CHANNELS 3 Xrotation Yrotation Zrotation
												End Site
												{
													OFFSET 0.101639 6.054260 1.275483
												}
											}
										}
									}
								}
								JOINT mixamorig:LeftHandIndex1
								{
									OFFSET 23.101074 -0.309540 4.992809
									CHANNELS 3 Xrotation Yrotation Zrotation
									JOINT mixamorig:LeftHandIndex2
									{
										OFFSET 6.226883 0.000000 0.000000
										CHANNELS 3 Xrotation Yrotation Zrotation
										JOINT mixamorig:LeftHandIndex3
										{
											OFFSET 6.094330 0.000000 0.000000
											CHANNELS 3 Xrotation Yrotation Zrotation
											JOINT mixamorig:LeftHandIndex4
											{
												OFFSET 5.482605 0.000000 0.000000
												CHANNELS 3 Xrotation Yrotation Zrotation
												End Site
												{
													OFFSET -1.427902 5.233032 0.797164
												}
											}
										}
									}
								}
								JOINT mixamorig:LeftHandRing1
								{
									OFFSET 22.299240 0.021149 -3.964172
									CHANNELS 3 Xrotation Yrotation Zrotation
									JOINT mixamorig:LeftHandRing2
									{
										OFFSET 6.321869 0.000000 0.000000
										CHANNELS 3 Xrotation Yrotation Zrotation
										JOINT mixamorig:LeftHandRing3
										{
											OFFSET 5.899796 0.000000 0.000000
											CHANNELS 3 Xrotation Yrotation Zrotation
											JOINT mixamorig:LeftHandRing4
											{
												OFFSET 6.517899 0.000000 0.000000
												CHANNELS 3 Xrotation Yrotation Zrotation
												End Site
												{
													OFFSET -1.637299 6.232208 0.980890
												}
											}
										}
									}
								}
								JOINT mixamorig:LeftHandPinky1
								{
									OFFSET 20.463791 -0.302338 -8.562233
									CHANNELS 3 Xrotation Yrotation Zrotation
									JOINT mixamorig:LeftHandPinky2
									{
										OFFSET 6.908646 0.000000 0.000000
										CHANNELS 3 Xrotation Yrotation Zrotation
										JOINT mixamorig:LeftHandPinky3
										{
											OFFSET 4.622849 0.000000 0.000000
											CHANNELS 3 Xrotation Yrotation Zrotation
											JOINT mixamorig:LeftHandPinky4
											{
												OFFSET 5.216080 0.000000 0.000000
												CHANNELS 3 Xrotation Yrotation Zrotation
												End Site
												{
													OFFSET -0.606308 5.116241 0.814926
												}
											}
										}
									}
								}
							}
						}
					}
				}
				JOINT mixamorig:RightShoulder
				{
					OFFSET -12.001300 18.284088 1.348900
					CHANNELS 3 Xrotation Yrotation Zrotation
					JOINT mixamorig:RightArm
					{
						OFFSET -25.308500 -0.751312 -5.164599
						CHANNELS 3 Xrotation Yrotation Zrotation
						JOINT mixamorig:RightForeArm
						{
							OFFSET -54.684429 0.000000 0.000000
							CHANNELS 3 Xrotation Yrotation Zrotation
							JOINT mixamorig:RightHand
							{
								OFFSET -55.150291 0.000000 0.000000
								CHANNELS 3 Xrotation Yrotation Zrotation
								JOINT mixamorig:RightHandMiddle1
								{
									OFFSET -23.317566 0.000000 0.000000
									CHANNELS 3 Xrotation Yrotation Zrotation
									JOINT mixamorig:RightHandMiddle2
									{
										OFFSET -6.378403 0.000000 0.000000
										CHANNELS 3 Xrotation Yrotation Zrotation
										JOINT mixamorig:RightHandMiddle3
										{
											OFFSET -6.148193 0.000000 0.000000
											CHANNELS 3 Xrotation Yrotation Zrotation
											JOINT mixamorig:RightHandMiddle4
											{
												OFFSET -6.583389 0.000000 0.000000
												CHANNELS 3 Xrotation Yrotation Zrotation
												End Site
												{
													OFFSET 1.171692 6.395905 1.029786
												}
											}
										}
									}
								}
								JOINT mixamorig:RightHandThumb1
								{
									OFFSET -7.190521 -3.860474 5.435846
									CHANNELS 3 Xrotation Yrotation Zrotation
									JOINT mixamorig:RightHandThumb2
									{
										OFFSET -6.567429 -3.791718 3.791708
										CHANNELS 3 Xrotation Yrotation Zrotation
										JOINT mixamorig:RightHandThumb3
										{
											OFFSET -6.062469 -3.500153 3.500166
											CHANNELS 3 Xrotation Yrotation Zrotation
											JOINT mixamorig:RightHandThumb4
											{
												OFFSET -4.792618 -2.767029 2.767022
												CHANNELS 3 Xrotation Yrotation Zrotation
												End Site
												{
													OFFSET -0.100327 6.053253 1.276754
												}
											}
										}
									}
								}
								JOINT mixamorig:RightHandIndex1
								{
									OFFSET -23.048981 -0.310791 4.992554
									CHANNELS 3 Xrotation Yrotation Zrotation
									JOINT mixamorig:RightHandIndex2
									{
										OFFSET -6.227539 0.000000 0.000000
										CHANNELS 3 Xrotation Yrotation Zrotation
										JOINT mixamorig:RightHandIndex3
										{
											OFFSET -6.095047 0.000000 0.000000
											CHANNELS 3 Xrotation Yrotation Zrotation
											JOINT mixamorig:RightHandIndex4
											{
												OFFSET -5.484772 0.000000 0.000000
												CHANNELS 3 Xrotation Yrotation Zrotation
												End Site
												{
													OFFSET 1.420593 5.237305 0.797056
												}
											}
										}
									}
								}
								JOINT mixamorig:RightHandRing1
								{
									OFFSET -22.246323 0.020569 -3.963762
									CHANNELS 3 Xrotation Yrotation Zrotation
									JOINT mixamorig:RightHandRing2
									{
										OFFSET -6.322128 0.000000 0.000000
										CHANNELS 3 Xrotation Yrotation Zrotation
										JOINT mixamorig:RightHandRing3
										{
											OFFSET -5.900024 0.000000 0.000000
											CHANNELS 3 Xrotation Yrotation Zrotation
											JOINT mixamorig:RightHandRing4
											{
												OFFSET -6.518356 0.000000 0.000000
												CHANNELS 3 Xrotation Yrotation Zrotation
												End Site
												{
													OFFSET 1.636398 6.232697 0.982186
												}
											}
										}
									}
								}
								JOINT mixamorig:RightHandPinky1
								{
									OFFSET -20.411011 -0.303314 -8.561701
									CHANNELS 3 Xrotation Yrotation Zrotation
									JOINT mixamorig:RightHandPinky2
									{
										OFFSET -6.907349 0.000000 0.000000
										CHANNELS 3 Xrotation Yrotation Zrotation
										JOINT mixamorig:RightHandPinky3
										{
											OFFSET -4.623840 0.000000 0.000000
											CHANNELS 3 Xrotation Yrotation Zrotation
											JOINT mixamorig:RightHandPinky4
											{
												OFFSET -5.218353 0.000000 0.000000
												CHANNELS 3 Xrotation Yrotation Zrotation
												End Site
												{
													OFFSET 0.602097 5.118835 0.816273
												}
											}
										}
									}
								}
							}
						}
					}
				}
			}
		}
	}
	JOINT mixamorig:LeftUpLeg
	{
		OFFSET 18.168400 -13.561905 -0.039000
		CHANNELS 3 Xrotation Yrotation Zrotation
		JOINT mixamorig:LeftLeg
		{
			OFFSET 0.577358 -80.825211 -3.695000
			CHANNELS 3 Xrotation Yrotation Zrotation
			JOINT mixamorig:LeftFoot
			{
				OFFSET -0.577356 -83.370262 -6.520700
				CHANNELS 3 Xrotation Yrotation Zrotation
				JOINT mixamorig:LeftToeBase
				{
					OFFSET 0.750401 -20.798306 25.135401
					CHANNELS 3 Xrotation Yrotation Zrotation
					JOINT mixamorig:LeftToe_End
					{
						OFFSET -0.000500 0.001200 19.917799
						CHANNELS 3 Xrotation Yrotation Zrotation
						End Site
						{
							OFFSET 0.000000 19.917805 0.000000
						}
					}
				}
			}
		}
	}
	JOINT mixamorig:RightUpLeg
	{
		OFFSET -18.162500 -13.585098 -0.041000
		CHANNELS 3 Xrotation Yrotation Zrotation
		JOINT mixamorig:RightLeg
		{
			OFFSET -0.595024 -80.945297 -3.631900
			CHANNELS 3 Xrotation Yrotation Zrotation
			JOINT mixamorig:RightFoot
			{
				OFFSET 0.595024 -83.218193 -6.561200
				CHANNELS 3 Xrotation Yrotation Zrotation
				JOINT mixamorig:RightToeBase
				{
					OFFSET -0.753601 -20.807106 25.115000
					CHANNELS 3 Xrotation Yrotation Zrotation
					JOINT mixamorig:RightToe_End
					{
						OFFSET 0.000299 0.001700 19.918200
						CHANNELS 3 Xrotation Yrotation Zrotation
						End Site
						{
							OFFSET 0.000000 19.918203 0.000000
						}
					}
				}
			}
		}
	}
}
MOTION
Frames: 4
Frame Time: 0.033333
20.210621 167.121094 -18.088690 22.490898 -58.197767 19.857993 20.301624 -6.877401 -11.202463 19.441722 -2.510987 -7.957559 19.435986 -2.463911 -7.995692 -1.115046 5.394218 -1.048224 -40.740719 46.224285 3.990378 -0.000000 -0.000001 0.000002 -0.000000 -0.000001 0.000002 -0.000000 -0.000001 0.000002 -0.239579 -8.951462 5.381469 -15.634846 17.215311 -48.659722 0.000007 -113.702063 -0.000009 -5.445067 16.430157 -17.440084 -0.461470 3.841582 -39.722683 6.450738 5.820349 -95.892871 2.182891 4.561565 -51.127723 -0.000001 -0.000004 -0.000000 -6.141207 -11.690820 -6.761689 9.914081 42.595532 3.409855 -0.422819 8.108096 27.509111 0.000002 0.000000 -0.000001 0.255308 3.378215 -45.814341 5.654082 5.847745 -88.067455 2.162138 4.544816 -50.866369 -0.000000 0.000000 -0.000000 0.469727 4.966833 -39.799451 8.181054 5.368612 -113.503011 3.200486 5.218114 -63.022982 0.000002 -0.000002 -0.000001 -3.762429 9.063693 -45.253814 5.342533 5.829005 -85.005317 8.716861 5.103348 -119.369181 -0.000001 0.000002 0.000001 11.567539 27.120605 -0.183455 -54.657472 38.215830 39.898123 0.000023 119.535045 -0.000024 -22.754190 0.664895 25.064612 -0.761620 -2.932904 39.031051 5.133893 -4.632764 95.881642 1.739730 -3.631687 51.181329 0.000001 -0.000000 -0.000001 -7.341102 13.749655 7.412319 9.855782 -44.489096 -3.903263 -0.115793 -14.513068 -28.973857 -0.000001 -0.000000 -0.000001 -0.124375 -2.384784 45.108857 4.500567 -4.654513 88.071143 1.723224 -3.618374 50.920109 0.000001 -0.000000 -0.000001 0.154763 -4.068821 39.122658 6.509727 -4.273602 113.462850 2.549576 -4.153903 63.067324 -0.000002 0.000000 0.000002 -4.198878 -8.025520 44.637789 4.252918 -4.639634 85.014832 6.935956 -4.062614 119.322298 0.000000 0.000000 -0.000001 -59.288344 3.024942 25.915269 63.890027 2.622836 -0.458306 -15.118888 -8.958090 -16.350351 -0.522164 -0.000002 -0.000002 -0.000000 -0.000002 -0.000000 -59.504212 0.535485 -17.870316 66.556840 -1.739657 -5.004383 -16.665697 -2.113913 10.546578 0.306893 -0.002433 0.480609 -0.000000 0.000000 0.000000 
19.691540 168.022400 -16.801151 21.748700 -59.192263 20.855815 20.532860 -6.152929 -9.682241 19.505991 -2.102503 -7.281023 19.499574 -2.054244 -7.319183 -1.386802 5.159129 -0.582764 -37.847130 46.589069 1.166754 -0.000003 -0.000000 -0.000000 -0.000003 -0.000000 -0.000000 -0.000003 -0.000000 -0.000000 -0.272067 -8.849635 5.690286 -12.533769 16.002524 -52.053886 -0.000023 -112.526349 -0.000034 -4.279922 16.263616 -19.845615 -0.461470 3.841584 -39.722679 6.450740 5.820344 -95.892864 2.182890 4.561565 -51.127723 -0.000000 0.000003 -0.000001 -6.141208 -11.690808 -6.761686 9.914084 42.595529 3.409854 -0.422819 8.108095 27.509116 0.000003 0.000000 -0.000000 0.255309 3.378219 -45.814341 5.654080 5.847744 -88.067448 2.162135 4.544815 -50.866376 -0.000001 0.000000 0.000002 0.469728 4.966836 -39.799444 8.181054 5.368614 -113.503011 3.200487 5.218109 -63.022989 -0.000001 0.000001 0.000002 -3.762428 9.063694 -45.253814 5.342533 5.829003 -85.005324 8.716854 5.103344 -119.369181 0.000000 0.000000 -0.000000 11.393849 27.168635 0.745147 -55.339337 40.214709 41.701310 0.000067 118.524259 -0.000066 -21.672245 -0.775370 24.981876 -0.761618 -2.932904 39.031055 5.133895 -4.632766 95.881635 1.739731 -3.631688 51.181329 0.000001 -0.000001 0.000003 -7.341102 13.749655 7.412319 9.855778 -44.489089 -3.903263 -0.115795 -14.513064 -28.973854 -0.000002 -0.000000 -0.000000 -0.124372 -2.384783 45.108857 4.500566 -4.654512 88.071143 1.723225 -3.618373 50.920112 0.000001 -0.000000 -0.000001 0.154765 -4.068820 39.122661 6.509726 -4.273602 113.462857 2.549575 -4.153903 63.067324 -0.000001 0.000000 -0.000001 -4.198878 -8.025519 44.637786 4.252917 -4.639634 85.014839 6.935956 -4.062614 119.322298 -0.000002 0.000000 -0.000001 -56.857879 4.324971 24.892046 63.085157 3.633013 -1.191230 -15.565458 -8.832253 -16.329698 -0.538568 0.000007 0.000001 0.000000 0.000002 0.000000 -58.732161 0.625897 -19.184562 65.848795 -0.402864 -5.826900 -16.509928 -2.057570 10.499101 0.271460 -0.001879 0.425965 0.000000 0.000001 -0.000001 
18.500359 168.881378 -15.963751 19.762790 -59.274902 20.668759 20.745072 -5.273390 -8.155149 19.419346 -1.653488 -6.598798 19.412345 -1.608320 -6.635176 -1.661071 4.994061 -0.330020 -34.769682 46.370226 -1.536626 0.000000 0.000001 0.000000 0.000000 0.000001 0.000000 0.000000 0.000001 0.000000 -0.303197 -8.471304 5.717231 -10.234932 14.978596 -54.938541 -0.000019 -110.946588 -0.000032 -3.144691 15.523555 -22.211538 -0.461471 3.841584 -39.722683 6.450737 5.820352 -95.892871 2.182888 4.561564 -51.127719 -0.000000 -0.000001 -0.000001 -6.141207 -11.690819 -6.761687 9.914079 42.595529 3.409855 -0.422819 8.108094 27.509113 0.000003 -0.000000 0.000001 0.255308 3.378217 -45.814341 5.654079 5.847746 -88.067455 2.162135 4.544813 -50.866369 -0.000001 0.000004 -0.000001 0.469729 4.966837 -39.799451 8.181053 5.368617 -113.503018 3.200484 5.218106 -63.022982 0.000001 0.000000 -0.000002 -3.762428 9.063693 -45.253814 5.342535 5.829003 -85.005324 8.716852 5.103347 -119.369181 -0.000003 -0.000000 0.000001 11.165079 27.020385 1.512534 -55.811777 41.191344 44.039936 0.000007 117.361406 0.000000 -20.568852 -2.051660 25.262879 -0.761618 -2.932903 39.031058 5.133894 -4.632766 95.881635 1.739730 -3.631686 51.181329 0.000002 -0.000001 0.000001 -7.341101 13.749656 7.412321 9.855773 -44.489096 -3.903260 -0.115794 -14.513066 -28.973861 -0.000001 0.000001 -0.000000 -0.124373 -2.384784 45.108864 4.500570 -4.654512 88.071143 1.723223 -3.618375 50.920116 0.000001 0.000000 -0.000003 0.154764 -4.068821 39.122658 6.509728 -4.273604 113.462857 2.549576 -4.153902 63.067324 -0.000000 0.000001 0.000000 -4.198878 -8.025518 44.637786 4.252919 -4.639634 85.014832 6.935957 -4.062614 119.322298 -0.000001 0.000000 -0.000001 -54.203497 5.374950 23.303784 61.917400 4.165138 -1.489191 -15.771773 -8.736330 -16.435361 -0.561002 0.000018 -0.000001 -0.000000 0.000001 0.000000 -57.226149 0.868133 -20.584131 65.532291 -0.186519 -6.538504 -16.897922 -2.177880 10.846401 0.235151 -0.001433 0.369814 -0.000000 -0.000000 0.000000 
16.798790 169.726257 -15.444714 16.821270 -58.720858 19.509836 20.926084 -4.301112 -6.647283 19.159191 -1.203210 -5.920243 19.152436 -1.165838 -5.952777 -1.921314 4.908810 -0.408415 -31.577983 45.369644 -4.064373 -0.000000 -0.000001 -0.000002 -0.000000 -0.000001 -0.000002 -0.000000 -0.000001 -0.000002 -0.322420 -7.765152 5.337188 -9.010339 14.083155 -57.015253 -0.000084 -109.298948 -0.000079 -2.885332 13.786048 -23.932674 -0.461469 3.841578 -39.722679 6.450739 5.820347 -95.892878 2.182890 4.561567 -51.127716 0.000001 0.000003 0.000000 -6.141204 -11.690816 -6.761688 9.914078 42.595536 3.409856 -0.422817 8.108096 27.509113 0.000002 -0.000001 0.000002 0.255309 3.378210 -45.814341 5.654081 5.847744 -88.067455 2.162134 4.544814 -50.866369 0.000000 0.000000 -0.000002 0.469728 4.966833 -39.799451 8.181053 5.368612 -113.503018 3.200486 5.218106 -63.022982 -0.000000 0.000000 -0.000002 -3.762428 9.063693 -45.253814 5.342538 5.829000 -85.005324 8.716859 5.103352 -119.369181 0.000003 -0.000000 -0.000001 10.879031 26.484868 1.932008 -56.234269 41.209519 46.981589 -0.000042 116.427200 0.000057 -18.924685 -3.362048 26.215714 -0.761619 -2.932904 39.031048 5.133898 -4.632766 95.881635 1.739729 -3.631685 51.181326 0.000001 0.000001 -0.000002 -7.341102 13.749654 7.412313 9.855774 -44.489096 -3.903270 -0.115793 -14.513069 -28.973854 -0.000001 0.000003 -0.000001 -0.124372 -2.384784 45.108864 4.500568 -4.654511 88.071143 1.723225 -3.618373 50.920112 0.000002 -0.000000 -0.000003 0.154764 -4.068820 39.122661 6.509725 -4.273603 113.462850 2.549575 -4.153903 63.067317 0.000000 0.000000 0.000004 -4.198878 -8.025517 44.637783 4.252916 -4.639635 85.014832 6.935958 -4.062615 119.322298 0.000001 0.000000 0.000000 -51.361288 6.313814 21.531963 60.463505 4.117907 -1.433335 -15.794273 -8.673807 -16.550015 -0.481794 0.000003 0.000001 -0.000000 -0.000001 0.000000 -55.023703 1.109641 -22.038297 65.398952 -0.823270 -7.060748 -17.667003 -2.350954 11.439321 0.197197 -0.001015 0.311241 0.000000 -0.000001 -0.000000 
